<?xml version="1.0" standalone="no"?><!DOCTYPE svg PUBLIC "-//W3C//DTD SVG 1.1//EN" "http://www.w3.org/Graphics/SVG/1.1/DTD/svg11.dtd"><svg t="1764211366452" class="icon" viewBox="0 0 1024 1024" version="1.1" xmlns="http://www.w3.org/2000/svg" p-id="4676" xmlns:xlink="http://www.w3.org/1999/xlink" width="200" height="200"><path d="M10.666667 243.626667A160 160 0 0 1 170.666667 83.626667h454.741333a160 160 0 0 1 160 160v536.746666a160 160 0 0 1-160 160H170.666667a160 160 0 0 1-160-160V243.626667zM170.666667 147.626667a96 96 0 0 0-96 96v536.746666A96 96 0 0 0 170.666667 876.373333h454.741333a96 96 0 0 0 96-96V243.626667a96 96 0 0 0-96-96H170.666667z m778.666666 133.376a10.666667 10.666667 0 0 0-17.792-7.936l-82.176 73.770666a32 32 0 1 1-42.752-47.616l82.176-73.813333c48.085333-43.136 124.544-9.002667 124.544 55.594667v462.165333c0 65.28-77.909333 99.114667-125.610666 54.570667l-81.578667-76.16a32 32 0 0 1 43.648-46.762667L931.413333 750.933333c6.826667 6.4 17.962667 1.536 17.962667-7.765333V281.002667zM398.08 403.584a108.416 108.416 0 1 0 0 216.832 108.416 108.416 0 0 0 0-216.832zM225.578667 512a172.416 172.416 0 1 1 344.874666 0 172.416 172.416 0 0 1-344.874666 0z" p-id="4677"></path></svg>