<?xml version="1.0" standalone="no"?><!DOCTYPE svg PUBLIC "-//W3C//DTD SVG 1.1//EN" "http://www.w3.org/Graphics/SVG/1.1/DTD/svg11.dtd"><svg t="1764136941130" class="icon" viewBox="0 0 1024 1024" version="1.1" xmlns="http://www.w3.org/2000/svg" p-id="7902" xmlns:xlink="http://www.w3.org/1999/xlink" width="200" height="200"><path d="M601.48585 83.595763c19.175539 76.702157 31.959232 153.404314 38.351078 236.498317-89.48585-12.783693-172.579853 0-255.673856 31.959232l-57.526618 38.351078c-25.567386 12.783693-44.742925 31.959232-70.31031 44.742925C166.840294 518.241318 102.92183 620.510861 58.178906 729.17225V307.310387C70.962598 211.432691 115.705523 128.338688 192.40768 64.420224 294.677222 0.50176 396.946765-18.673779 512 19.677299c31.959232 19.175539 63.918464 38.351078 89.48585 63.918464z m0 0" fill="#A569FF" p-id="7903"></path><path d="M601.48585 83.595763C716.539085 198.648998 831.59232 320.09408 953.037402 435.147315c-95.877696-63.918464-198.147238-102.269542-306.808628-115.053235-12.783693-83.094003-25.567386-159.79616-44.742924-236.498317z m0 0" fill="#2038FB" p-id="7904"></path><path d="M639.836928 320.09408c6.391846 102.269542 6.391846 204.539085-12.783693 306.808627-12.783693 83.094003-38.351078 166.188006-76.702157 236.498317-31.959232 12.783693-70.31031 25.567386-102.269542 38.351078-134.228774 19.175539-204.539085-38.351078-223.714624-172.579852-6.391846-102.269542 12.783693-198.147238 63.918464-287.633088 12.783693-19.175539 25.567386-31.959232 38.351078-51.134772l57.526618-38.351078c83.094003-31.959232 166.188006-44.742925 255.673856-31.959232z m0 0" fill="#FEFEFE" p-id="7905"></path><path d="M639.836928 320.09408c108.661389 12.783693 217.322778 51.134771 306.808627 115.053235 0 0 0 6.391846 6.391847 6.391847 6.391846 12.783693 12.783693 31.959232 12.783692 44.742924-6.391846 70.31031-25.567386 140.620621-70.31031 198.147239-44.742925 57.526618-95.877696 108.661389-159.79616 153.404313-89.48585 63.918464-178.971699 115.053235-281.241242 153.404314 38.351078-38.351078 70.31031-76.702157 95.877696-127.836928 38.351078-76.702157 63.918464-153.404314 76.702157-236.498317 19.175539-102.269542 19.175539-204.539085 12.783693-306.808627z m0 0" fill="#37E0BE" p-id="7906"></path><path d="M326.636454 390.40439c-12.783693 12.783693-25.567386 31.959232-38.351078 51.134772-51.134771 89.48585-76.702157 185.363546-63.918464 287.633088 19.175539 134.228774 95.877696 185.363546 223.714624 172.579852 38.351078-6.391846 70.31031-19.175539 102.269542-38.351078-25.567386 44.742925-57.526618 89.48585-95.877696 127.836928-38.351078 19.175539-83.094003 31.959232-121.445081 31.959232-89.48585 6.391846-159.79616-25.567386-223.714624-89.48585-44.742925-57.526618-63.918464-121.445082-51.134771-198.147238 44.742925-115.053235 108.661389-210.930931 198.147238-300.416781 25.567386-12.783693 44.742925-31.959232 70.31031-44.742925z m0 0" fill="#1F37FB" p-id="7907"></path></svg>