<?xml version="1.0" standalone="no"?><!DOCTYPE svg PUBLIC "-//W3C//DTD SVG 1.1//EN" "http://www.w3.org/Graphics/SVG/1.1/DTD/svg11.dtd"><svg t="1764211411693" class="icon" viewBox="0 0 1024 1024" version="1.1" xmlns="http://www.w3.org/2000/svg" p-id="5707" xmlns:xlink="http://www.w3.org/1999/xlink" width="200" height="200"><path d="M213.33376 515.669333c0-33.493333 5.632-65.621333 15.616-95.744l-175.445333-132.693333A511.36 511.36 0 0 0 0.000427 515.669333c0 82.090667 19.2 159.573333 53.376 228.266667l175.402666-132.906667A302.250667 302.250667 0 0 1 213.33376 515.669333" fill="#FBBC05" p-id="5708"></path><path d="M521.515093 210.986667a303.530667 303.530667 0 0 1 192 67.925333l151.722667-150.016C772.779093 49.237333 654.251093 0 521.515093 0c-206.08 0-383.232 116.736-468.053333 287.232l175.616 132.693333c40.405333-121.557333 155.690667-208.981333 292.522667-208.981333" fill="#EA4335" p-id="5709"></path><path d="M523.776427 813.610667c-137.557333 0-253.397333-86.869333-294.058667-207.701334L53.33376 737.834667c85.205333 169.472 263.253333 285.44 470.4 285.44 127.786667 0 249.813333-44.416 341.418667-127.744l-167.424-126.72c-47.232 29.098667-106.709333 44.8-174.08 44.8" fill="#34A853" p-id="5710"></path><path d="M1024.000427 510.805333c0-30.293333-4.778667-62.890667-11.946667-93.184H523.73376v197.973334h281.088c-13.994667 67.541333-52.224 119.466667-107.008 153.173333l167.424 126.762667C961.408427 808.106667 1024.000427 677.888 1024.000427 510.805333" fill="#4285F4" p-id="5711"></path></svg>