<?xml version="1.0" standalone="no"?><!DOCTYPE svg PUBLIC "-//W3C//DTD SVG 1.1//EN" "http://www.w3.org/Graphics/SVG/1.1/DTD/svg11.dtd"><svg t="1764137476401" class="icon" viewBox="0 0 1024 1024" version="1.1" xmlns="http://www.w3.org/2000/svg" p-id="14526" xmlns:xlink="http://www.w3.org/1999/xlink" width="200" height="200"><path d="M511.999995 0a511.999995 511.999995 0 0 1 511.999995 511.999995v325.759997A186.175998 186.175998 0 0 1 837.759992 1023.99999H511.999995A511.999995 511.999995 0 1 1 511.999995 0z m0 116.351999a395.647996 395.647996 0 0 0-185.471998 745.151993l-0.704-0.448c186.175998 93.119999 407.231996-58.175999 395.647996-255.999998-10.24-174.207998-221.119998-221.055998-255.999998-186.175998-8.768 8.768-10.88 24 3.2 26.24 5.952-1.152 11.968-1.92 18.048-2.368l1.984-0.576a5.312 5.312 0 0 1 3.328 0.192 174.527998 174.527998 0 1 1 8.32 348.863996C418.879996 791.295992 255.999998 744.767993 255.999998 558.591995s162.879998-267.647997 279.295997-267.647998c162.879998 0 302.527997 127.999999 302.527997 360.767997 0 13.696 20.224 39.616 39.231999 13.056a392.959996 392.959996 0 0 0 23.936-80.256c2.816-19.904 5.12-43.84 6.656-72.447999A395.647996 395.647996 0 0 0 511.999995 116.351999z" p-id="14527"></path></svg>