<?xml version="1.0" standalone="no"?><!DOCTYPE svg PUBLIC "-//W3C//DTD SVG 1.1//EN" "http://www.w3.org/Graphics/SVG/1.1/DTD/svg11.dtd"><svg t="1764137412203" class="icon" viewBox="0 0 1024 1024" version="1.1" xmlns="http://www.w3.org/2000/svg" p-id="12110" xmlns:xlink="http://www.w3.org/1999/xlink" width="200" height="200"><path d="M469.333333 170.666667v85.333333H170.666667v85.333333h484.693333c-9.813333 37.12-31.146667 75.52-63.146667 114.773334-22.613333 28.16-49.92 55.893333-80.213333 84.48-30.293333-28.586667-57.6-56.32-80.213333-84.48-20.053333-24.32-34.986667-48.64-46.506667-72.106667H292.266667c15.36 44.8 41.386667 86.613333 72.96 125.866667 24.32 30.293333 52.48 59.306667 82.773333 87.466666l-219.306667 180.48 54.613334 65.706667L512 654.506667l228.693333 189.013333 54.613334-65.706667L576 597.333333c30.293333-28.16 58.453333-57.173333 82.773333-87.466666 41.386667-51.626667 73.386667-107.52 83.626667-168.533334H853.333333V256h-298.666666V170.666667z" p-id="12111"></path></svg>