<?xml version="1.0" standalone="no"?><!DOCTYPE svg PUBLIC "-//W3C//DTD SVG 1.1//EN" "http://www.w3.org/Graphics/SVG/1.1/DTD/svg11.dtd"><svg t="1764133078995" class="icon" viewBox="0 0 1024 1024" version="1.1" xmlns="http://www.w3.org/2000/svg" p-id="3470" xmlns:xlink="http://www.w3.org/1999/xlink" width="200" height="200"><path d="M958.464 809.472l-4.608-1.536c-22.016-6.144-41.472-16.384-59.392-31.744-25.6-22.016-50.176-30.72-74.752-26.112 25.6-16.896 48.64-34.304 70.144-52.224l2.048-1.536c3.584-3.072 7.168-6.144 10.752-10.24 5.12-7.168 6.656-15.36 3.584-23.04a24.0128 24.0128 0 0 0-18.432-14.848c-5.12-1.024-9.728 0-13.824 0l-555.008 35.84-170.496 10.752c-5.632 0-20.48 1.536-26.624 12.8-5.632 9.728-1.536 20.992 3.072 29.696l10.752 20.48 3.584 7.168-3.072 2.56c-8.704 6.656-16.896 12.8-25.088 18.944l-4.096 3.072c-7.68 5.12-14.848 10.752-23.04 13.824-8.704 3.584-17.92 7.68-20.992 17.408-3.072 9.216 2.048 17.408 6.656 25.088l2.048 3.072s3.072 3.072 5.12 3.072h19.968s2.56 0 3.584-1.024l13.824-9.216c11.776-8.192 24.064-16.384 35.84-24.576 2.56-2.048 5.12-3.584 7.68-5.632l2.048-1.536s3.072-2.56 4.608-3.584c26.112-17.92 26.112-17.92 49.152 3.584 19.968 18.944 44.544 32.256 74.24 40.96h28.672c1.024 0 2.56 0 3.584-1.024l2.048-1.024c6.144-4.096 12.288-8.192 17.92-12.288 14.848-9.728 27.136-17.92 39.936-27.136 20.992-15.36 33.28-14.848 54.272 0 13.312 9.728 27.136 18.432 40.448 27.136l4.096 2.56 13.824 9.216 1.536 1.024s2.048 1.024 3.584 1.024h33.28s2.56 0 3.584-1.024l1.536-1.024c5.632-4.096 11.776-7.68 17.408-11.776 11.776-7.68 26.112-16.896 39.424-26.624 22.528-16.384 34.304-16.384 56.32 0 13.312 9.728 27.648 19.456 39.424 26.624 5.632 3.584 11.776 7.68 17.408 11.776l1.536 1.024s2.048 1.024 3.584 1.024h33.28s2.56 0 3.584-1.024l1.536-1.024 17.92-11.776 2.56-1.536c12.288-7.68 24.576-15.872 36.352-24.576 23.04-16.896 34.304-16.384 57.344 0 12.8 9.728 27.136 17.92 40.96 26.624l4.096 2.56c4.608 3.072 9.728 5.632 14.336 8.704l1.536 1.024s2.048 1.024 3.584 1.024h31.744c3.584 0 6.144-3.072 6.144-6.144v-28.672c0-3.072-2.048-5.632-4.608-6.144z m-228.864-7.168c7.168-3.584 14.336-7.68 21.504-11.264-3.584 2.56-7.68 5.12-11.776 7.68a25.088 25.088 0 0 1-9.728 3.584z m76.8-101.376c-17.92 11.776-36.352 23.552-54.784 34.304-22.016 13.312-45.568 24.576-71.168 37.376h-4.096c-45.056-31.744-77.824-30.208-120.832 4.608-43.008 34.816-44.544 34.816-88.064 0-23.04-18.432-43.008-27.136-62.976-27.136s-40.448 8.704-63.488 27.648l-10.24 8.192c-25.6 21.504-39.424 22.016-66.56 4.096-9.216-6.144-17.92-13.824-25.6-20.992l-7.68-6.656c-12.8-11.776-29.184-22.528-49.664-17.92 0-1.024-1.024-1.536-1.536-2.56l626.176-40.448zM183.808 680.96h19.456c5.12 0 9.728-1.024 13.312-3.072 114.688-67.584 236.544-77.824 372.224-31.232 4.096 1.536 7.68 3.072 12.8 4.608 5.12 2.048 9.728 3.584 14.848 5.632 8.704 2.56 16.896 2.048 23.04-2.048s9.728-10.752 10.752-19.968v-4.608s-1.024-4.096-1.536-5.632c-2.048-7.68-3.584-15.36-5.12-23.04-3.584-17.408-7.68-35.328-13.824-52.736-69.12-198.144-207.872-349.696-413.184-449.024-8.192-4.096-25.088-4.096-31.744 5.12-7.168 9.216-3.584 23.552-0.512 30.208 5.632 11.776 11.264 23.552 17.408 35.328 9.728 19.456 19.968 39.424 27.648 59.392 59.904 157.696 45.056 292.864-46.08 413.184-4.608 6.144-4.608 13.312-4.608 19.456V665.6l-1.024 7.168s0 3.584 1.536 5.12 2.56 2.048 5.12 2.048z m82.944-79.872c64.512-131.072 61.952-267.264-8.192-425.984 78.336 46.08 145.408 102.4 204.288 173.056 65.536 77.824 108.544 159.744 131.072 249.856-116.224-37.376-223.744-36.352-327.168 3.072z m-70.144 73.728z" fill="#5F5AEB" p-id="3471"></path><path d="M443.904 203.776c1.536 5.632 4.096 13.824 10.752 18.432 61.952 44.544 113.152 102.912 156.672 177.664 35.84 61.952 64 130.048 85.504 208.384 7.168 25.6 24.576 26.624 38.4 23.552 17.92-4.608 36.864-3.072 56.32 4.608l7.168 3.072c6.144 2.56 12.288 5.12 18.432 6.656 3.072 1.024 6.144 1.536 8.704 1.536 5.632 0 10.752-1.536 14.848-5.12 6.144-5.12 9.216-13.312 8.192-24.064l-1.024-3.584s-1.024-4.096-2.048-6.144c-54.272-159.232-149.504-288.768-283.136-384-20.48-14.848-43.52-25.088-66.56-35.84l-5.12-2.048c-4.608-2.048-9.728-4.608-14.336-6.656-7.68-3.584-15.36-1.024-22.016 1.024-1.536 0-2.56 1.024-4.096 1.024l-7.68 1.536s-3.584 1.536-4.608 3.072c-1.024 1.536-1.024 3.584 0 5.632l3.072 7.168 1.536 4.608z m200.704 156.672c59.904 65.024 108.032 140.288 142.848 224.768l-48.128-5.12c-25.088-83.456-56.32-156.16-94.72-219.648z" fill="#5F5AEB" p-id="3472"></path></svg>