<?xml version="1.0" standalone="no"?><!DOCTYPE svg PUBLIC "-//W3C//DTD SVG 1.1//EN" "http://www.w3.org/Graphics/SVG/1.1/DTD/svg11.dtd"><svg t="1764228164423" class="icon" viewBox="0 0 1024 1024" version="1.1" xmlns="http://www.w3.org/2000/svg" p-id="4698" xmlns:xlink="http://www.w3.org/1999/xlink" width="200" height="200"><path d="M781.859044 704.640549L1024.239737 947.984982 948.525888 1024l-242.440927-243.344433 75.774083-76.015018zM681.931219 1.411277c16.082417-5.360806 37.525639 5.421039 37.525639 21.503456l42.826211 284.905735c5.421039 5.421039 5.421039 10.842079 5.421039 16.202884l171.365078 198.891911c10.721611 10.781845 10.721611 32.285301-10.721612 37.646106l-235.694744 129.020737c-5.360806 5.421039-10.721611 5.421039-10.721611 10.781845L526.588325 958.34519c-10.721611 16.142651-32.1046 21.503456-42.826211 5.421039l-192.868533-220.4556c-5.360806-5.421039-10.661377-10.781845-16.022183-10.781845l-251.777161-32.225067c-16.082417-5.421039-26.804028-21.503456-21.443223-37.646107l112.516684-247.319861v-10.721612l-32.164834-284.965968c-5.360806-21.503456 10.721611-32.285301 26.804028-32.285301l289.242566 10.781845h10.721612z" fill="#707070" p-id="4699"></path></svg>