<?xml version="1.0" standalone="no"?><!DOCTYPE svg PUBLIC "-//W3C//DTD SVG 1.1//EN" "http://www.w3.org/Graphics/SVG/1.1/DTD/svg11.dtd"><svg t="1764137494256" class="icon" viewBox="0 0 1024 1024" version="1.1" xmlns="http://www.w3.org/2000/svg" p-id="15516" xmlns:xlink="http://www.w3.org/1999/xlink" width="200" height="200"><path d="M799.189333 392.32c0-169.514667-153.941333-306.986667-343.893333-306.986667-65.834667 0-119.210667 137.472-119.210667 306.986667 0 42.410667 3.328 82.858667 9.386667 119.637333H228.736l-122.069333 426.666667h348.757333v-239.189333c189.824 0 343.722667-137.514667 343.722667-306.986667l0.042666-0.128z m-343.893333-250.794667c34.517333 0 62.378667 112.341333 62.378667 250.794667 0 138.496-27.861333 250.794667-62.336 250.794667-34.517333 0-62.378667-112.298667-62.378667-250.794667 0-138.453333 27.904-250.794667 62.293333-250.794667z" p-id="15517"></path><path d="M805.930667 699.477333H455.68L589.994667 938.666667h350.165333l-134.229333-239.189334z" p-id="15518"></path></svg>