<?xml version="1.0" standalone="no"?><!DOCTYPE svg PUBLIC "-//W3C//DTD SVG 1.1//EN" "http://www.w3.org/Graphics/SVG/1.1/DTD/svg11.dtd"><svg t="1764212370570" class="icon" viewBox="0 0 1024 1024" version="1.1" xmlns="http://www.w3.org/2000/svg" p-id="9695" xmlns:xlink="http://www.w3.org/1999/xlink" width="200" height="200"><path d="M483.328 769.299692c-1.851077 8.507077-3.190154 16.541538-5.316923 24.497231-19.810462 74.752-67.702154 122.013538-142.375385 140.681846-59.549538 14.926769-116.893538 6.380308-169.353846-26.269538-46.985846-29.341538-74.830769-72.270769-84.086154-126.818462a248.674462 248.674462 0 0 1-3.308307-40.684307c-0.196923-153.481846-0.078769-306.963692-0.07877-460.445539C78.769231 185.186462 146.904615 101.730462 240.206769 83.101538a211.022769 211.022769 0 0 1 40.526769-4.135384c154.624-0.275692 309.248-0.275692 463.793231-0.118154 45.174154 0.118154 86.646154 12.209231 122.486154 40.566154 35.367385 27.923692 57.619692 64.669538 68.253539 108.110769 14.099692 57.619692 8.034462 113.152-22.646154 164.588308-27.057231 45.528615-67.780923 73.097846-118.86277 85.661538-7.640615 1.969231-15.478154 3.190154-23.670153 4.962462 1.181538 1.260308 2.126769 2.402462 3.150769 3.465846 38.990769 38.872615 77.981538 77.587692 116.854154 116.539077 30.444308 30.444308 48.049231 67.111385 53.563077 109.961846 10.633846 82.313846-33.949538 170.496-106.57477 209.841231a186.092308 186.092308 0 0 1-90.702769 22.252307c-12.957538 0-25.836308 0.590769-38.596923-1.732923-23.197538-4.253538-44.268308-13.745231-64.196923-25.993846-28.750769-17.801846-53.76-39.975385-77.469538-63.763692-24.772923-24.812308-49.033846-50.176-73.609847-75.224615-2.875077-3.111385-5.907692-5.789538-9.176615-8.822154zM201.531077 512.787692v126.188308c0 36.667077-0.393846 73.334154 0.196923 109.961846 0.393846 22.331077 9.924923 40.920615 27.963077 54.468923 17.841231 13.430154 38.360615 17.959385 60.219077 16.147693 18.274462-1.575385 34.816-7.876923 48.561231-20.401231 16.423385-15.084308 23.000615-34.343385 23.000615-56.123077V280.064c0-3.662769-0.196923-7.483077-0.787692-11.027692-6.183385-40.526769-45.056-70.971077-85.976616-67.584a80.265846 80.265846 0 0 0-73.255384 79.872c0.078769 77.193846 0.078769 154.348308 0.078769 231.424z m282.978461-29.144615c-0.118154 1.851077-0.196923 3.150769-0.196923 4.371692 0 35.131077-0.118154 70.222769 0.07877 105.314462 0 1.969231 1.063385 4.450462 2.520615 5.828923a56947.003077 56947.003077 0 0 0 202.318769 202.121846c17.329231 17.211077 38.478769 24.654769 63.015385 20.283077 23.630769-4.135385 41.826462-17.014154 55.729231-36.076308 11.224615-15.438769 17.132308-32.768 15.596307-52.224-1.575385-18.825846-10.358154-34.107077-23.512615-47.261538a387007.842462 387007.842462 0 0 1-199.286154-199.246769 9.176615 9.176615 0 0 0-7.404308-3.072c-34.697846 0.078769-69.316923 0.078769-104.054153 0.078769-1.457231-0.078769-2.875077-0.078769-4.804924-0.078769z m-0.118153-122.486154h159.586461c34.500923 0 69.041231 0.472615 103.581539-0.118154 28.317538-0.472615 49.979077-13.351385 63.40923-38.675692 9.019077-16.935385 11.421538-35.209846 8.822154-54.075077-5.041231-36.824615-31.744-66.638769-73.412923-66.717538-91.372308-0.196923-182.665846-0.078769-274.077538-0.07877-1.181538 0-2.402462 0.157538-3.859693 0.393846 7.089231 15.635692 10.712615 31.704615 12.760616 48.246154 3.387077 26.978462 3.465846 54.035692 3.111384 81.211077l0.07877 29.814154z" p-id="9696"></path></svg>