<?xml version="1.0" standalone="no"?><!DOCTYPE svg PUBLIC "-//W3C//DTD SVG 1.1//EN" "http://www.w3.org/Graphics/SVG/1.1/DTD/svg11.dtd"><svg t="1764212078210" class="icon" viewBox="0 0 1024 1024" version="1.1" xmlns="http://www.w3.org/2000/svg" p-id="2418" xmlns:xlink="http://www.w3.org/1999/xlink" width="200" height="200"><path d="M400.020666 493.042536q0 1.706573-0.341315 3.413146-0.341315 1.663908-0.981279 3.242488t-1.621245 2.986502q-0.938615 1.450587-2.133216 2.645188-1.237265 1.237265-2.645187 2.175881-1.450587 0.981279-2.986503 1.621244-1.621244 0.639965-3.285152 0.981279-1.706573 0.341315-3.413146 0.341315t-3.413146-0.341315q-1.663908-0.341315-3.242488-0.981279t-2.986502-1.621244q-1.450587-0.938615-2.645188-2.133216-1.237265-1.237265-2.175881-2.645188-0.981279-1.450587-1.621244-2.986503-0.639965-1.621244-0.981279-3.285152-0.341315-1.706573-0.341315-3.413146t0.341315-3.413146q0.341315-1.663908 0.981279-3.242488t1.621244-2.986502q0.938615-1.450587 2.133216-2.645188 1.237265-1.237265 2.645188-2.175881 1.450587-0.981279 2.986503-1.621244 1.621244-0.639965 3.285152-0.981279 1.706573-0.341315 3.413146-0.341315t3.413146 0.341315q1.663908 0.341315 3.242488 0.981279t2.986502 1.621244q1.450587 0.938615 2.645188 2.133216 1.237265 1.237265 2.17588 2.645188 0.981279 1.450587 1.621245 2.986503 0.639965 1.621244 0.981279 3.285152 0.341315 1.706573 0.341315 3.413146z" p-id="2419"></path><path d="M307.609748 373.283789c1.919894-0.511972 3.711796 0.127993 5.461033 1.87723 8.319542 8.532864 16.639085 16.980399 25.043956 25.427935a6.399648 6.399648 0 0 0 2.602524 1.493251l34.558099 8.916843c2.389202 0.5973 3.839789 1.834566 4.351761 3.754461 0.554636 1.962559-0.085329 3.839789-1.834566 5.546361l-25.427935 24.958627a5.93034 5.93034 0 0 0-0.895951 1.27993 5.717019 5.717019 0 0 0-0.639965 1.407923c-2.986502 11.519366-5.973005 23.038733-8.874178 34.558099-0.5973 2.346538-1.87723 3.839789-3.839789 4.351761-1.919894 0.511972-3.75446-0.127993-5.461033-1.919895-8.319542-8.4902-16.639085-16.937735-25.043956-25.38527a6.740963 6.740963 0 0 0-2.645188-1.493252l-34.558099-8.916842c-2.389202-0.5973-3.839789-1.87723-4.394425-3.839789-0.469308-1.87723 0.170657-3.711796 1.919894-5.461033 8.532864-8.276878 16.980399-16.639085 25.427935-24.958627a5.119718 5.119718 0 0 0 0.938615-1.27993c0.255986-0.426643 0.426643-0.853286 0.597301-1.365258 2.986502-11.519366 5.973005-23.038733 8.874178-34.5581 0.5973-2.389202 1.87723-3.839789 3.839789-4.394425zM675.248195 397.261137a17.449707 17.449707 0 1 1 0 34.85675 17.449707 17.449707 0 1 1 0-34.85675zM600.329649 295.080091c1.962559-0.511972 3.839789 0.127993 5.546361 1.87723 8.276878 8.532864 16.553756 16.980399 24.873299 25.427934a6.61297 6.61297 0 0 0 2.645188 1.535916l34.430106 8.959507c2.389202 0.5973 3.839789 1.919894 4.394425 3.839789 0.511972 1.919894-0.127993 3.75446-1.919894 5.461033l-25.427935 24.873299a7.167606 7.167606 0 0 0-1.535916 2.602523l-8.959507 34.472771c-0.5973 2.389202-1.87723 3.839789-3.839789 4.394425-1.919894 0.469308-3.75446-0.170657-5.461033-1.919895-8.276878-8.532864-16.596421-16.980399-24.873298-25.427934a5.119718 5.119718 0 0 0-1.27993-0.938615 5.119718 5.119718 0 0 0-1.365258-0.597301l-34.472771-8.959507c-2.389202-0.5973-3.839789-1.87723-4.351761-3.839789-0.511972-1.919894 0.127993-3.711796 1.87723-5.461033 8.532864-8.276878 16.980399-16.553756 25.427935-24.873299a5.077054 5.077054 0 0 0 0.938615-1.279929 5.63169 5.63169 0 0 0 0.639965-1.365258l8.959507-34.387442c0.5973-2.431866 1.834566-3.839789 3.754461-4.394425z" p-id="2420"></path><path d="M344.983693 19.553911a260.337681 260.337681 0 0 1 129.955519-17.705693c56.871539 6.527641 107.556751 30.71831 152.055637 72.529345a4.949061 4.949061 0 0 0 4.565082 1.237265c60.114027-14.761855 117.838852-9.556808 173.302468 15.615141l2.602524 1.237265 6.612969 3.285153c57.895482 29.993017 99.407866 75.473182 124.494487 136.397831 11.860681 29.011738 17.833686 59.218076 17.961678 90.747009a241.053409 241.053409 0 0 1-7.679577 69.585506 6.996949 6.996949 0 0 0 1.706572 6.570306 255.132634 255.132634 0 0 1 67.281633 123.385214c16.468428 81.104873-0.341315 154.188853-50.429226 219.294605l-7.722242 9.38615a258.631109 258.631109 0 0 1-125.262444 78.928993 6.826291 6.826291 0 0 0-4.522418 4.394425c-10.879402 31.40094-21.844132 58.194133-42.152348 84.987325-51.15452 67.494954-126.371716 105.039556-211.103056 104.527585-67.537619-0.29865-127.39566-25.001292-179.616788-74.06526a6.058333 6.058333 0 0 0-5.973005-1.322594c-22.100118 7.124941-44.370893 8.148885-68.476234 7.892899a252.700768 252.700768 0 0 1-110.671246-26.537207 258.417787 258.417787 0 0 1-91.557631-75.985154c-8.660857-11.519366-17.236385-22.270775-23.550705-35.027407a330.307166 330.307166 0 0 1-21.076174-54.738323 260.593667 260.593667 0 0 1-0.725293-130.766141 6.954284 6.954284 0 0 0 0.29865-3.157159 4.778404 4.778404 0 0 0-1.535915-2.687853 254.023362 254.023362 0 0 1-58.876762-93.946833 221.555814 221.555814 0 0 1-14.207219-67.836269 294.853116 294.853116 0 0 1 8.020892-90.875001c19.198944-63.356515 55.847595-113.060448 109.988618-149.069135 12.031338-8.020892 23.422712-14.249883 34.131456-18.729637a350.274068 350.274068 0 0 1 36.776644-12.927289 5.461033 5.461033 0 0 0 3.711796-3.711795 256.583221 256.583221 0 0 1 47.101409-91.94161C269.425182 62.474217 304.281931 36.150332 344.983693 19.553911z m41.171068 326.254056c-49.234625-34.984743-116.473594-17.620364-141.261563 37.33128-12.84196 28.414437-15.359155 58.36479-7.594249 89.851059l6.186326 25.001291 11.092723 40.531104c4.479754 22.740083 13.225939 43.517607 26.110564 62.375236l1.27993 1.834566c6.826291 8.063557 14.292547 15.444484 22.356103 22.100118 59.132748 48.594661 139.725648 16.169777 155.810098-56.444896l2.133216-9.0875 0.511971-3.413145c2.559859-17.065728 1.791901-33.790142-2.261209-50.130577a2034.448105 2034.448105 0 0 0-23.294718-86.352584c-9.258157-31.486268-26.281221-56.018252-51.069192-73.595952z m303.087331-70.225471c-36.776644-34.216785-93.477525-35.45405-129.998184-1.109272-14.249883 13.396597-24.148005 31.40094-29.737031 53.970365a148.045191 148.045191 0 0 0 0 69.756163l0.597301 2.303874 2.346537 7.679577c5.418369 17.919014 10.452758 35.582043 15.060505 52.946422 4.778404 18.047007 8.618193 30.12101 11.519367 36.264672 24.48932 51.45317 77.649063 88.4858 135.544545 64.935095 53.799708-21.929461 70.012149-85.755283 57.810153-137.379111-1.834566-7.807571-3.839789-15.572477-5.973004-23.294719a1468.42057 1468.42057 0 0 0-18.260329-67.110975c-6.91162-21.673475-19.881573-41.299062-38.90986-58.962091z" p-id="2421"></path></svg>