<?xml version="1.0" standalone="no"?><!DOCTYPE svg PUBLIC "-//W3C//DTD SVG 1.1//EN" "http://www.w3.org/Graphics/SVG/1.1/DTD/svg11.dtd"><svg t="1764133140211" class="icon" viewBox="0 0 1024 1024" version="1.1" xmlns="http://www.w3.org/2000/svg" p-id="7443" xmlns:xlink="http://www.w3.org/1999/xlink" width="200" height="200"><path d="M90.766981 786.284572c3.007436 0.95982 5.502968 3.583328 8.382428 5.247016 52.406174 30.074361 104.876336 59.956758 157.218522 90.031119 77.937387 44.85559 156.258701 89.199275 233.428232 135.270637 17.660689 10.494032 30.202337 8.31844 46.327314-1.151784 76.785603-45.111542 154.211085-89.327251 231.316628-133.798913 60.660626-34.937449 121.257264-69.874898 182.045866-104.492408 7.422608-4.223208 10.55802-9.022308 10.430045-17.788664-0.63988-33.273761-0.383928-66.483534-0.383928-99.693308 0-129.255765 0.127976-258.511529 0.255952-387.767293 0-9.790164-0.447916-17.660689-11.197901-23.675561-57.525214-31.994001-114.474536-64.947822-171.487846-97.773668C692.062238 101.612948 607.022183 52.470162 522.046116 3.071424 515.071424-0.895832 509.44048-1.151784 502.4018 3.007436c-42.424045 24.763357-85.104043 49.142786-127.720053 73.586203-99.94926 57.525214-199.898519 115.114416-299.975754 172.383678-7.422608 4.287196-10.23808 9.150284-10.238081 17.724676 0.383928 81.904643 0.255952 163.809286 0.255952 245.585953h-0.063988c0 75.249891 0.767856 150.499781-0.447916 225.685684-0.383928 22.651753 1.407736 40.952321 26.619009 48.310942z" fill="#6725AA" p-id="7444"></path><path d="M162.305568 503.969506l89.007311-154.08311c-31.994001 45.047554-61.940386 91.310879-92.142723 137.382241-3.967256 6.142848-3.83928 11.005936 3.1994 16.700869z m616.716365-144.356933l2.687496-1.343748c-4.031244-7.934512-8.190464-15.805037-12.15772-23.739549l-56.309442-111.019184c-3.51934-6.910704-7.166656-13.565456-18.236581-8.894332l84.016247 144.996813z m87.919515 162.529525l-4.47916-0.63988-87.407611 150.56377 2.367556 1.407736c29.818409-45.879398 59.828782-91.758795 89.327251-137.894145 1.983628-3.1994 0.191964-8.95832 0.191964-13.437481z m-540.186715 292.297195l3.327377-3.839281-85.679935-147.748297-2.431544 1.343748c24.315441 47.607074 48.566894 95.342123 73.33025 142.693245 1.791664 3.51934 7.550584 5.11904 11.453852 7.550585zM149.571955 483.109417l4.47916 1.023808 92.526652-142.181341c-2.943448-0.447916-4.095232 0.383928-4.927077 1.471724-30.714241 42.104105-61.49247 84.080235-91.822783 126.504281-2.111604 2.943448-0.255952 8.702368-0.255952 13.181528z m726.519778 58.868962l-5.11904-0.95982-101.484972 155.362869c2.303568 0.511904 3.455352 0.127976 3.967256-0.63988 33.657689-46.45529 67.315378-92.910579 100.58914-139.62182 2.367556-3.455352 1.407736-9.342248 2.047616-14.077361zM227.125414 648.198463l-2.687496 1.087796c23.035681 51.510342 45.943386 103.084672 69.49097 154.467037 1.727676 3.83928 7.67856 5.694932 11.773793 8.446417l3.391364-3.455353-81.968631-160.481909z m570.77298-271.373118l2.367556-1.535712c-23.035681-51.702306-45.943386-103.4686-69.49097-154.978941-1.5997-3.391364-8.062488-4.607136-12.285697-6.782728l-2.303568 3.391364 81.648691 159.906017zM259.631319 308.486159l-2.23958-1.535712c-0.63988 0.895832-1.151784 1.91964-1.91964 2.751484-37.432981 45.943386-74.801975 91.950759-112.42692 137.766169-5.247016 6.462788-3.007436 11.1979 2.23958 17.404736l114.34656-156.386677z m507.424858 405.427982l2.367556 1.791664 44.087734-54.389802 66.29157-81.904643c4.7991-5.886896 8.31844-11.645816 0.127976-19.708304l-112.874836 154.211085z m-479.142161 92.206711L209.080797 629.961882c18.876461 55.669562 39.928513 110.251328 60.788602 164.96107 2.87946 7.67856 6.014872 13.949384 18.044617 11.1979z m68.979067-617.164281l210.008623 10.749984C502.273824 191.964007 437.709929 185.053303 373.146035 177.950634c-8.126476-0.895832-14.205336-0.191964-16.252952 11.005937z m104.684371 635.848778c2.23958 1.215772 2.815472 1.791664 3.51934 1.855652 63.73205 6.782728 127.528088 13.693432 191.324127 20.028245 3.903268 0.383928 8.31844-4.351184 12.541649-6.71874l-1.599701-4.095233-205.785415-11.069924z m103.78854-632.073486l0.447916-1.727676c-1.023808-0.447916-1.983628-1.023808-3.007436-1.27976-59.124914-9.406236-118.249828-18.620509-177.246766-28.474661-8.702368-1.471724-12.605636 1.471724-15.741049 10.430044l195.547335 21.052053z m175.967006 22.779729l-4.031244 3.83928 81.584703 182.87771c0.895832-1.407736 1.343748-1.791664 1.27976-1.983628-22.203837-57.781166-44.21571-115.562332-66.867463-173.151534-1.91964-4.735112-7.870524-7.742548-12.029744-11.51784v-0.063988z m-241.618696 604.046741l-0.127976 1.663688c56.629382 3.071424 113.258764 6.334812 169.888146 8.95832 3.583328 0.127976 7.486596-4.927076 11.261888-7.614572l-1.5997-3.071424H499.650316z m-54.709742 11.581828l-0.191964 1.663688 93.166531 14.525277 101.101043 15.869024c7.870524 1.215772 14.397301 0.447916 14.973193-10.622008l-209.048803-21.435981z m105.772167-625.034806l0.127976-1.151784c-6.782728-0.63988-13.501468-1.535712-20.284196-1.91964-28.090733-1.471724-56.117478-2.87946-84.144223-4.15922-29.242517-1.27976-58.485034-2.55952-87.663563-3.711304-7.166656-0.31994-13.821408 0.191964-13.437481 10.87796h205.401487zM268.717615 283.46685l-2.111604-2.23958c-2.175592 2.55952-4.287196 5.11904-6.590764 7.67856-15.101169 16.892833-30.202337 33.849653-45.431481 50.678498-25.723177 28.666625-51.446354 57.397238-77.425483 85.935887-5.502968 6.014872-6.142848 11.389864 1.151784 18.236581L268.717615 283.46685zM399.701056 133.734925l1.407736 5.183028 187.164907 39.352621c-1.087796-2.55952-1.151784-3.135412-1.407736-3.1994-57.461226-15.485097-114.858464-31.098169-172.447666-46.007373-4.223208-1.087796-9.790164 2.943448-14.717241 4.671124z m446.252328 292.74511l1.791664-0.511904c0-1.151784 0.191964-2.303568-0.063988-3.327376-16.508905-61.556458-33.081797-123.176904-49.526714-184.797351-2.175592-8.31844-7.422608-10.23808-16.764857-9.5982l64.563895 198.234831z m-87.471599-204.377679l72.05049 186.972942c1.663688-2.303568 1.727676-4.15922 1.215772-5.75892-18.620509-57.525214-37.368993-114.922452-55.797538-172.383678-2.687496-8.31844-8.31844-9.5982-17.532712-8.830344zM177.854652 594.960445h-1.343748c0 1.023808-0.255952 2.175592 0 3.1994l50.806474 190.044367c2.047616 7.67856 7.294632 9.534212 16.252953 8.31844l-65.779667-201.562207z m575.700056 149.475973l0.895833 1.27976c0.895832-0.447916 1.91964-0.703868 2.55952-1.471724l131.559332-145.892645c5.374992-5.950884 4.095232-11.133912-1.27976-18.108605l-133.734925 164.193214z m-111.851027 129.511717l-1.151784-4.47916-204.185716-31.866026a4112.508905 4112.508905 0 0 0 189.916391 42.552022c4.47916 0.895832 10.23808-4.031244 15.357121-6.206836zM261.167031 804.649128l4.47916-3.83928-77.80941-202.202087a19.196401 19.196401 0 0 0 0.767856 9.982128c20.156221 61.620446 40.184465 123.30488 60.788602 184.797351 1.535712 4.543148 7.67856 7.550584 11.773792 11.261888z m637.064551-199.002687l-5.183029-1.91964-143.333125 157.858402c2.111604 0.63988 3.1994 0.31994 3.83928-0.383928 46.903206-46.711242 93.870399-93.422483 140.325689-140.517653 3.1994-3.263388 2.943448-9.982128 4.351185-15.101169zM597.743923 189.020559l-0.127976-1.727676c-1.087796-0.383928-2.111604-0.95982-3.1994-1.215772-65.267762-13.885396-130.535525-27.898769-195.995251-41.208274-4.47916-0.895832-10.046116 3.83928-15.101169 6.014872l1.279761 4.223208 213.080047 33.913642zM418.065613 842.466038l-0.447916 1.471724c1.535712 0.63988 2.943448 1.471724 4.47916 1.91964 62.644254 16.828845 125.22452 33.849653 187.99675 50.038617 4.415172 1.151784 10.23808-3.647316 15.549085-5.630944l-1.151784-3.967256-206.425295-43.831781zM130.951447 422.640755l146.532525-161.889646a10.622008 10.622008 0 0 0-7.03868 3.455352c-45.943386 46.071362-91.694807 92.270699-137.894145 138.022121-6.270824 6.206836-8.190464 11.1979-1.5997 20.412173z m-9.854153-21.883897l141.541461-142.693245c-35.961257 32.249953-87.023683 77.873399-137.574205 124.008748-3.327376 3.071424-2.431544 10.749984-3.967256 18.684497z m628.10623 377.785165c-1.27976 0.63988-0.255952 0.383928 0.447916-0.255952 49.782666-44.791602 99.437355-89.583203 149.347998-134.246828 6.590764-5.886896 4.607136-11.645816 2.623508-17.916641l-152.419422 152.419421z m-527.83703 11.645817l-58.868962-218.838968c-1.91964 1.151784-2.175592 1.91964-2.047616 2.623508 14.653253 67.827282 29.434481 135.654565 43.767793 203.481847 1.91964 9.022308 5.886896 13.309504 17.148785 12.733613z m195.803287-672.385928l0.703868 4.991064 214.551771 57.269262 0.767856-2.623508c-66.675498-21.499969-133.350997-43.25589-200.282447-64.179966-4.351184-1.27976-10.430044 2.87946-15.67706 4.543148z m191.51609 784.74886l-221.270511-59.188902c4.671124 3.83928 9.790164 6.206836 15.101168 7.934512 61.300506 19.708305 122.728988 39.096669 183.901519 59.188902 9.342248 3.071424 15.933013 3.007436 22.267824-7.934512z m194.779479-668.48266l60.788602 226.069612c1.663688-1.151784 1.91964-1.91964 1.791664-2.55952-15.101169-70.642754-30.202337-141.221521-45.111541-211.800287-1.91964-8.95832-7.35862-11.1979-17.468725-11.709805z m-504.161469-17.532712l-1.727677-2.047616-21.43598 17.27676-149.220022 120.297444c-7.35862 5.950884-14.013372 11.965756-6.014872 24.315441l178.398551-159.842029z m526.87721 25.083296l50.038618 233.748173a21.947885 21.947885 0 0 0 0.63988-11.325877c-10.813972-68.595138-21.883897-137.126289-32.249953-205.721427-1.535712-10.366056-5.247016-15.933013-18.428545-16.636881v-0.063988z m79.217147 405.939887l-185.117291 165.664938a49.718678 49.718678 0 0 0 15.357121-9.214273c54.13385-43.767794 108.139724-87.663563 162.529526-131.047428 8.31844-6.590764 12.349684-12.7976 7.230644-25.467225z m-546.713491 195.739299l-0.511904 2.687496 40.312441 15.229144c56.565394 21.691933 113.258764 43.25589 169.696182 65.139787 9.5982 3.711304 16.316941 2.495532 22.267825-7.806537l-231.764544-75.24989zM146.756483 539.866775l-2.047616 0.383928 4.351184 27.706805c10.622008 66.739486 21.371993 133.478973 31.610073 200.282447 1.535712 10.110104 6.71874 14.07736 18.108605 14.781229l-51.958258-243.154409zM117.194026 351.486096l189.596451-152.675373-1.855652-2.303568c-16.124977 11.773792-32.249953 23.547585-48.438918 35.193401-44.151722 31.994001-88.303443 63.860026-132.519153 95.598076-8.190464 5.886896-13.565456 11.901768-6.782728 24.251452z m561.046804-166.112853l0.511904-1.407737c-0.895832-0.511904-1.663688-1.151784-2.55952-1.535712-73.266263-27.962757-146.596513-55.669562-219.670812-84.080235-10.430044-4.031244-16.316941-1.663688-21.499969 8.254453l243.154409 78.769231z m1.91964-8.126477l0.95982-1.91964c-0.895832-0.63988-1.727676-1.471724-2.687496-1.855652-67.699306-30.202337-135.590577-60.148722-203.161907-90.734987-9.91814-4.47916-14.397301 0.511904-21.563957 7.67856l226.517528 86.831719z m-504.865338 596.304193l-37.816909-237.075548a35.065425 35.065425 0 0 0-1.023808 14.71724c7.166656 68.723114 14.589265 137.446229 21.244017 206.233332 1.023808 11.069924 5.886896 15.229145 17.660688 16.124976z m167.584578 73.394239l-1.27976 2.111604c2.55952 1.343748 5.183028 2.815472 7.934512 4.031244 65.139786 28.858589 130.407549 57.461226 195.355371 86.639755 9.982128 4.47916 18.108605 7.03868 25.787165-5.566956l-227.797288-87.215647z m546.329563-349.630445l1.727676-0.255952c0-1.471724 0.127976-2.943448 0-4.47916-7.806536-74.673999-15.805037-149.411985-23.163656-224.149972-1.087796-10.813972-6.206836-15.101169-17.980629-17.404736l39.416609 246.353808z m-179.102418 335.425108l1.471724 1.91964 22.395801-16.252952c57.077298-41.400237 114.02662-82.864463 171.167906-124.072737 7.422608-5.311004 7.67856-11.005936 3.1994-21.11604l-198.234831 159.522089z m200.538399-133.8629l-195.483347 141.285509c2.815472 1.5997 4.223208 1.087796 5.43898 0.31994 61.044554-39.480597 122.02512-79.089171 183.261639-118.249829 8.446416-5.502968 11.069924-11.645816 6.782728-23.291632zM114.314566 326.338811l202.394051-146.404549c-2.495532-1.407736-3.83928-1.151784-4.991064-0.447916-63.348122 40.952321-126.440292 82.096607-189.916391 122.856965-8.766356 5.566956-11.965756 11.773792-7.486596 23.9955z m360.700369-250.513028l240.466912 106.540023c-71.026682-38.456789-143.013185-74.737987-214.743735-111.595076-10.23808-5.247016-17.660689-4.863088-25.723177 5.055053zM316.196713 845.409486l-1.535712 2.047616 9.726176 5.11904c66.547522 33.785665 133.223021 67.315378 199.450603 101.740924 10.87796 5.694932 17.916641 4.7991 26.171093-5.119041L316.196713 845.473474z m580.179217-570.836968l14.909204 270.925201c1.91964-85.104043 1.91964-170.208086 2.047616-255.248141 0-10.430044-6.334812-13.11754-16.95682-15.67706z m-22.843717-12.477661l28.282697 271.62907a27.514841 27.514841 0 0 0 1.343748-11.325877c-4.287196-80.816847-8.95832-161.569706-12.797601-242.45054-0.511904-10.87796-4.47916-15.741049-16.828844-17.852653zM113.54671 475.238893h-1.727676v15.613072c0 80.176967 0.127976 160.353934-0.511904 240.594889-0.127976 12.349684 6.014872 16.252953 17.276761 19.580328l-15.037181-275.788289z m610.381553-298.504031l1.599701-2.111604c-1.791664-1.151784-3.51934-2.55952-5.311005-3.583328-66.547522-38.392801-133.223021-76.785603-199.642567-115.370368-9.470224-5.502968-15.357121-0.95982-23.099669 5.950884l226.45354 115.114416zM112.714866 300.231707l216.279448-139.749797a17.660689 17.660689 0 0 0-11.261889 2.55952c-65.65169 37.752921-131.175405 75.825783-196.955071 113.38674-9.086296 5.183028-10.494032 11.709804-8.062488 23.739549z m38.968693 462.82522l-28.602637-271.94901a71.922515 71.922515 0 0 0-1.215772 18.172593c4.287196 78.449291 8.894332 156.898582 12.797601 235.347872 0.511904 10.494032 4.47916 15.997001 17.020808 18.428545z m534.299819 107.819784l1.343748 1.983628 16.380929-9.598201c66.419546-38.008873 132.775105-76.145723 199.386615-113.898644 9.726176-5.502968 11.773792-12.47766 8.510404-24.059489L686.047366 870.876711z m-398.901206-29.754421l-0.895832 1.5997c0.831844 0.63988 1.663688 1.343748 2.55952 1.91964 72.242455 41.592201 144.484909 82.992439 216.471412 124.776604 9.342248 5.311004 14.525277 0.191964 22.395801-6.07886l-240.594889-122.217084z m225.301756-27.770793v-0.127976c54.645754 0 109.419484-0.127976 164.065238 0.255952 7.614572 0 11.645816-2.55952 15.101168-8.894333 9.27826-16.892833 19.068425-33.529713 28.666625-50.230581 44.919578-77.553459 89.647191-155.234893 134.950697-232.532401 4.415172-7.550584 3.711304-12.669624-0.255952-19.51634-53.621946-92.142723-106.923952-184.541398-159.970006-277.06805-5.630944-9.790164-11.645816-13.501468-23.099668-13.437481-107.499844 0.383928-214.999688 0.191964-322.435544 0-8.446416-0.063988-12.925576 2.751484-16.95682 9.982129-14.909205 26.746985-30.586265 53.110042-45.943386 79.537087-39.416609 68.083234-78.961195 136.038493-118.057864 204.249703-2.047616 3.647316-1.663688 10.494032 0.383928 14.333312 9.534212 17.596701 20.156221 34.553521 30.202337 51.958258 44.663626 77.233519 89.391239 154.467037 133.606949 231.89252 4.223208 7.35862 8.574392 9.854152 16.828844 9.726177 54.261826-0.31994 108.58764-0.127976 162.913454-0.127976z m-406.963694-301.767419c0-74.482035 0.127976-148.964069-0.127976-223.510092 0-7.806536 2.55952-12.15772 9.342248-16.124976 90.990939-52.150222 181.91789-104.492408 272.844842-156.770606 38.776729-22.395801 77.553459-44.53565 116.202212-67.059426 6.3988-3.775292 11.581828-3.51934 17.91664 0.063988 77.297507 44.919578 154.659001 89.711179 232.084484 134.374804 51.830282 29.882397 103.660564 59.828782 155.938762 88.943324 9.790164 5.502968 10.23808 12.669624 10.23808 21.499968l-0.255952 352.893833c0 30.266325-0.127976 60.468662 0.383928 90.734987 0.127976 7.934512-2.751484 12.349684-9.534212 16.188964a41163.481847 41163.481847 0 0 0-165.60095 95.086172c-70.194838 40.440417-140.581641 80.752859-210.456539 121.70518-14.653253 8.63838-26.107105 10.685996-42.104106 1.151784-70.258826-41.976129-141.413485-82.288571-212.440167-123.112916-47.607074-27.386865-95.342123-54.645754-142.949197-81.904643-2.623508-1.535712-4.863088-3.967256-7.67856-4.7991-22.907705-6.71874-24.571393-23.355621-24.251453-43.959758 1.151784-68.467162 0.447916-136.934325 0.447916-205.401487z" fill="#FFFFFF" p-id="7445"></path><path d="M505.345248 365.499469l14.141348 0.31994-1.663688 14.013372-5.11904 42.999938-1.27976 11.325876h-11.389864c-13.885396 0-24.635381-0.127976-32.121978-0.383928v-0.063988l-33.785665-0.31994h-27.258889c-17.980629 0-28.538649 3.1994-34.105605 7.486596v0.063989c-3.711304 2.815472-7.870524 10.046116-7.870524 27.386864 0 6.334812 1.27976 9.27826 1.983628 10.494033 1.27976 1.535712 3.1994 2.87946 6.3988 3.83928 4.543148 1.27976 12.7976 2.87946 24.955321 4.735112H398.101356l14.07736 1.91964c19.836281 2.943448 36.409173 6.910704 49.206774 12.157721 13.43748 5.502968 24.315441 13.75742 31.738049 25.211273 7.486596 11.389864 10.622008 25.915141 10.622009 42.232081 0 3.007436-0.063988 6.142848-0.31994 9.342248l-0.895832 9.790165c-2.751484 22.843717-9.022308 42.040117-19.452353 56.885334a84.016247 84.016247 0 0 1-44.023746 31.994001c-18.172593 6.07886-40.952321 8.830344-67.827282 8.830344h-5.11904c-34.489533 0-63.348122-1.727676-86.383803-5.247016l-12.349685-1.855652 1.535712-12.349685 5.438981-43.831781 1.663688-12.669625 12.669624 1.535712c31.418109 3.83928 58.93295 5.75892 82.544523 5.758921h5.055052c15.805037 0 27.258889-1.471724 34.745485-3.967256V613.005062c8.062488-2.623508 12.15772-5.886896 14.269325-8.830345a36.857089 36.857089 0 0 0 5.566956-17.212772c0.575892-4.671124 0.703868-7.294632 0.703868-8.318441 0-7.422608-1.663688-10.813972-3.007436-12.285696-1.791664-2.047616-5.311004-4.351184-11.901768-5.75892l-0.511904-0.127976a306.502531 306.502531 0 0 0-35.001438-6.014873 185.757171 185.757171 0 0 1-47.991001-10.622008 64.243954 64.243954 0 0 1-30.522277-23.995501l-0.255952-0.31994c-6.846716-11.325876-9.726176-25.339249-9.726177-41.080297 0-6.334812 0.447916-13.181528 1.27976-20.604137v-0.063988c3.583328-31.418109 14.525277-56.309442 34.745486-71.666562 19.644317-15.037181 48.182966-21.435981 83.184402-21.435981h27.514841c19.836281 0 41.848153 0.255952 65.907643 0.767856z m175.263138-0.767856c35.833281 0.255952 64.883834 8.062488 84.464163 25.979129l6.846716 7.166656c14.973193 17.724677 21.499969 42.296069 21.499969 71.666563 0 8.702368-0.63988 19.068425-1.91964 31.098169l-5.950884 50.550521v0.255952c-5.950884 43.959758-19.708305 78.129351-43.063926 100.2692v0.063988c-23.547585 22.011873-57.01331 32.185965-98.349559 32.441917H508.8006L547.897269 364.731613h132.711117zM588.977567 615.564582h60.980566c21.755921 0 35.577329-5.502968 44.087733-14.141349 8.894332-9.086296 15.933013-25.339249 19.196401-50.998438l6.974692-55.157658a249.553209 249.553209 0 0 0 1.471724-20.348184c0-17.276761-4.15922-26.874961-9.662188-32.121977l-0.127976-0.191964c-5.311004-5.11904-15.997001-9.214272-35.321377-9.214273H611.62932L588.977567 615.564582z" fill="#FFFFFF" p-id="7446"></path></svg>