<?xml version="1.0" standalone="no"?><!DOCTYPE svg PUBLIC "-//W3C//DTD SVG 1.1//EN" "http://www.w3.org/Graphics/SVG/1.1/DTD/svg11.dtd"><svg t="1764212448656" class="icon" viewBox="0 0 1024 1024" version="1.1" xmlns="http://www.w3.org/2000/svg" p-id="10695" xmlns:xlink="http://www.w3.org/1999/xlink" width="200" height="200"><path d="M818.048 165.205333c-103.722667-34.346667-192.938667 38.528-213.76 105.258667 0 0-74.837333 240.341333-106.709333 340.608-15.232 47.872-52.949333 126.165333-123.989334 126.165333-57.856 0-87.594667-54.314667-100.138666-86.656l-86.229334-229.973333c-10.026667-24.192 0.426667-72.533333 40.533334-86.997333 42.794667-15.36 70.314667 20.48 77.44 39.466666l107.434666 275.2c25.6-32.981333 41.898667-86.656 52.48-124.672L394.581333 338.346667c-33.493333-86.442667-121.984-125.738667-203.946666-95.530667-66.346667 24.448-130.261333 108.245333-95.530667 213.504l89.045333 228.992c13.525333 34.688 66.858667 148.053333 187.562667 148.053333 144.810667 0 199.125333-123.52 229.290667-221.098666 15.061333-48.853333 97.706667-312.789333 97.706666-312.789334 12.032-39.466667 60.842667-50.773333 91.306667-40.832 21.546667 6.954667 60.416 36.693333 47.872 82.645334-2.346667 8.405333-68.266667 220.8-92.586667 285.397333-12.714667 33.706667-44.885333 106.88-118.186666 96.682667-22.357333 49.450667-40.917333 78.208-68.992 104.021333 91.434667 43.306667 224.725333-0.341333 280.832-169.813333a74455.893333 74455.893333 0 0 0 93.994666-290.346667c21.248-69.802667-16.64-169.514667-114.901333-202.026667z" p-id="10696" fill="#1296db"></path></svg>