<?xml version="1.0" standalone="no"?><!DOCTYPE svg PUBLIC "-//W3C//DTD SVG 1.1//EN" "http://www.w3.org/Graphics/SVG/1.1/DTD/svg11.dtd"><svg t="1764137355996" class="icon" viewBox="0 0 1102 1024" version="1.1" xmlns="http://www.w3.org/2000/svg" p-id="9967" xmlns:xlink="http://www.w3.org/1999/xlink" width="215.234375" height="200"><path d="M 502.158 77.0456 a 430.94 430.94 0 0 1 425.718 364.106 h 164.3 a 509.957 509.957 0 0 0 -974.662 -130.535 a 430.94 430.94 0 0 1 384.643 -233.571 Z M 693.61 938.577 A 430.94 430.94 0 0 1 280.771 629.47 H 112.642 a 509.957 509.957 0 0 0 985.105 31.3284 a 430.94 430.94 0 0 1 -404.137 277.779 Z" fill="#515151" p-id="9968"></path><path d="M 388.68 531.308 l 104.428 234.963 h 121.833 l 81.1058 -182.053 l 80.4096 182.053 h 180.661 l 127.75 -287.177 h -156.642 l -79.0172 177.18 l -92.2448 -208.856 h -99.2067 l -92.941 208.856 l -54.6507 -122.529 l -69.6187 -168.129 a 80.7577 80.7577 0 0 1 -5.5695 -29.2399 a 139.237 139.237 0 0 1 111.042 -123.921 c 60.9164 -13.9237 110.694 19.1451 110.694 73.4477 a 139.237 139.237 0 0 1 -110.694 123.921 a 101.295 101.295 0 0 1 -75.8844 -9.74662 l 10.0947 12.1833 a 139.237 139.237 0 0 0 193.192 15.3161 a 222.084 222.084 0 0 0 49.7774 -58.8278 c 100.251 -170.914 -92.2448 -292.399 -224.172 -228.697 a 275.342 275.342 0 0 0 -134.712 191.8 c -3.82903 9.74662 -7.65806 20.1894 -11.4871 30.9803 a 238.096 238.096 0 0 1 -139.237 142.022 c -158.034 69.6187 -214.774 -126.706 -67.1821 -109.998 c 62.6568 6.61378 38.2903 30.6322 73.0996 -42.4674 c -170.218 -75.1882 -295.183 104.428 -166.389 197.021 c 85.9791 61.6126 248.191 29.936 335.562 -18.1009 Z" fill="#515151" p-id="9969"></path><path d="M 509.468 312.357 a 23.3223 23.3223 0 1 0 -23.3223 23.3223 a 23.3223 23.3223 0 0 0 23.3223 -23.3223 Z" fill="#515151" p-id="9970"></path></svg>